<?xml version="1.0" encoding="UTF-8"?>
<svg version="1.1" xmlns="http://www.w3.org/2000/svg" width="781" height="190">
<path d="M0 0 C8.98136252 7.58931826 15.53837508 17.07561752 16.61376953 29.03027344 C17.51562246 43.64740221 15.16969602 55.59465336 5.43359375 67.02734375 C-3.07201905 76.17610307 -13.73338276 81.19428881 -26.1484375 82.24609375 C-40.48620705 82.73837768 -52.30950495 77.57000665 -62.75390625 67.92578125 C-71.92064186 58.32441593 -75.23871055 46.85378083 -75.10498047 33.82055664 C-74.60219859 21.83337752 -70.22417556 11.4657439 -61.56640625 3.02734375 C-43.11834025 -12.30237018 -19.7302462 -15.16556215 0 0 Z M-32.56640625 1.02734375 C-32.44265625 2.69796875 -32.44265625 2.69796875 -32.31640625 4.40234375 C-32.4350019 14.0763604 -37.39030609 20.32423894 -43.48095703 27.27563477 C-49.62612746 34.3107023 -53.43928236 39.84053797 -52.9140625 49.5234375 C-51.97581603 56.28092052 -47.80838291 60.95935145 -42.56640625 65.02734375 C-38.66066163 67.24873601 -34.66529626 69.1899103 -30.56640625 71.02734375 C-29.29102324 68.01225845 -29.29102324 68.01225845 -30.19140625 64.71484375 C-30.81646752 58.56840792 -27.82340027 55.29919439 -24.12890625 50.71484375 C-17.31003105 42.16602136 -14.44133393 32.92945297 -15.56640625 22.02734375 C-17.4963352 14.61641657 -21.07739619 8.07119967 -27.5078125 3.7109375 C-29.15911342 2.75351656 -30.85913953 1.88097711 -32.56640625 1.02734375 Z M-11.56640625 29.02734375 C-11.65277344 29.77757812 -11.73914063 30.5278125 -11.828125 31.30078125 C-13.21672711 41.41591957 -16.33338759 49.14864333 -23.33203125 56.65234375 C-25.81192513 59.41475719 -25.67501639 61.55575294 -25.62890625 65.15234375 C-25.61988281 66.06242187 -25.61085938 66.9725 -25.6015625 67.91015625 C-25.58996094 68.60882813 -25.57835937 69.3075 -25.56640625 70.02734375 C-17.64623689 66.11738673 -8.89889666 61.78481855 -5.56640625 53.02734375 C-4.69416976 44.88308911 -4.83331564 36.98878724 -9.56640625 30.02734375 C-10.22640625 29.69734375 -10.88640625 29.36734375 -11.56640625 29.02734375 Z " fill="#D62E38" transform="translate(559.56640625,29.97265625)"/>
<path d="M0 0 C8.1675 -0.04125 16.335 -0.0825 24.75 -0.125 C27.30331055 -0.14320801 29.85662109 -0.16141602 32.48730469 -0.18017578 C34.548826 -0.18602609 36.61034965 -0.19112036 38.671875 -0.1953125 C39.71166504 -0.20554443 40.75145508 -0.21577637 41.82275391 -0.22631836 C55.15733628 -0.22943537 67.27706294 1.39729815 77.375 10.75 C85.45542179 19.36911658 86.48547531 29.34357333 86.265625 40.6640625 C85.82975957 50.53085945 81.90488696 56.84251418 75.31640625 64.00390625 C72.94439705 66.04791418 70.95817312 67.03481124 68 68 C73.04396632 74.24657866 78.15276697 80.38958097 83.56640625 86.3203125 C85 88 85 88 85 89 C81.31332998 89.20474001 77.62813257 89.32809831 73.9375 89.4375 C72.37999023 89.52547852 72.37999023 89.52547852 70.79101562 89.61523438 C63.22309966 89.78341029 63.22309966 89.78341029 59.90283203 87.65673828 C57.50378625 85.29467201 55.54093072 82.82656568 53.69848633 80.01123047 C51.46174167 76.83556988 50.06838406 75.24473751 46.18847656 74.35595703 C42.81534117 74.08730472 39.50839005 74.03004084 36.125 74.0625 C34.9596875 74.04638672 33.794375 74.03027344 32.59375 74.01367188 C29.72937954 73.97845421 26.86454822 73.98510265 24 74 C24 67.73 24 61.46 24 55 C26.85785156 54.94392578 26.85785156 54.94392578 29.7734375 54.88671875 C32.30731026 54.82102575 34.84116357 54.75457959 37.375 54.6875 C38.62667969 54.66494141 39.87835937 54.64238281 41.16796875 54.61914062 C53.12785853 54.51822995 53.12785853 54.51822995 63.67749023 49.5847168 C67.8584879 44.80085361 68.29447249 40.58223322 68.21484375 34.50390625 C67.81188288 29.80758053 66.02241268 27.02241268 62.75 23.75 C57.01700698 20.10173171 51.03752785 19.68699179 44.44140625 19.5859375 C43.7407605 19.56829346 43.04011475 19.55064941 42.3182373 19.5324707 C39.73321299 19.470019 37.1478254 19.42340961 34.5625 19.375 C28.766875 19.25125 22.97125 19.1275 17 19 C17 42.1 17 65.2 17 89 C11.39 89 5.78 89 0 89 C0 59.63 0 30.26 0 0 Z " fill="#D62D38" transform="translate(586,21)"/>
<path d="M0 0 C12.189375 -0.020625 24.37875 -0.04125 36.9375 -0.0625 C42.71882446 -0.07615601 42.71882446 -0.07615601 48.61694336 -0.09008789 C53.30969238 -0.09460449 53.30969238 -0.09460449 55.50392151 -0.09544373 C57.04221383 -0.09698313 58.58050492 -0.10050799 60.11878967 -0.10557556 C62.44371652 -0.11285418 64.76856939 -0.11390738 67.09350586 -0.11352539 C69.06207802 -0.11685631 69.06207802 -0.11685631 71.07041931 -0.12025452 C74 0 74 0 75 1 C75 6.94 75 12.88 75 19 C55.86 19 36.72 19 17 19 C17 24.61 17 30.22 17 36 C31.52 36 46.04 36 61 36 C61 41.94 61 47.88 61 54 C46.48 54 31.96 54 17 54 C17 59.28 17 64.56 17 70 C36.14 70 55.28 70 75 70 C75 76.27 75 82.54 75 89 C50.25 89 25.5 89 0 89 C0 59.63 0 30.26 0 0 Z " fill="#D62D37" transform="translate(18,22)"/>
<path d="M0 0 C12 0 12 0 16.14453125 3.15625 C17.40058009 4.57529626 18.62217924 6.02538565 19.8125 7.5 C21.18168197 9.07214578 22.55148834 10.64374795 23.921875 12.21484375 C24.93991211 13.41729736 24.93991211 13.41729736 25.97851562 14.64404297 C29.05513909 18.22972129 32.30794297 21.63905831 35.5625 25.0625 C36.79270135 26.37403024 38.02186595 27.68653371 39.25 29 C41.84962956 31.77513198 44.4545003 34.54523315 47.0625 37.3125 C47.7320874 38.02398193 48.4016748 38.73546387 49.09155273 39.46850586 C50.36065803 40.81684181 51.63091342 42.16409664 52.90258789 43.51000977 C53.48258545 44.12674561 54.06258301 44.74348145 54.66015625 45.37890625 C55.16168213 45.9107251 55.66320801 46.44254395 56.17993164 46.99047852 C58.84948684 49.93791096 61.41201922 52.98068908 64 56 C64.33 37.52 64.66 19.04 65 0 C70.61 0 76.22 0 82 0 C82 29.37 82 58.74 82 89 C69 89 69 89 64.625 85.5 C63.38477478 84.02625957 62.17565904 82.52574417 61 81 C59.84064663 79.66030277 58.67410335 78.32678944 57.5 77 C56.9328125 76.34 56.365625 75.68 55.78125 75 C53.9257479 72.91662922 51.98776899 70.95718793 50 69 C47.40017817 66.44009866 44.93731602 63.8322046 42.5625 61.0625 C39.29229827 57.25595539 35.77426667 53.75692971 32.203125 50.234375 C29.57300298 47.56694628 27.1220416 44.78059462 24.703125 41.921875 C22.57292476 39.51807106 20.27112598 37.27112598 18 35 C17.67 52.82 17.34 70.64 17 89 C11.39 89 5.78 89 0 89 C0 59.63 0 30.26 0 0 Z " fill="#D52C37" transform="translate(296,22)"/>
<path d="M0 0 C8.1675 -0.04125 16.335 -0.0825 24.75 -0.125 C27.30331055 -0.14320801 29.85662109 -0.16141602 32.48730469 -0.18017578 C34.548826 -0.18602609 36.61034965 -0.19112036 38.671875 -0.1953125 C39.71166504 -0.20554443 40.75145508 -0.21577637 41.82275391 -0.22631836 C54.68313825 -0.22932453 67.6094376 1.38200009 77.62109375 10.28125 C86.15112392 20.91358222 86.99204057 32.97800862 86 46 C84.4473965 54.80158336 79.67608703 61.20289621 73 67 C62.27436009 74.16163417 50.88242205 74.28087401 38.4375 74.125 C37.03320953 74.11494735 35.62891207 74.10582555 34.22460938 74.09765625 C30.8163313 74.07423166 27.40814264 74.03836558 24 74 C24 67.73 24 61.46 24 55 C26.0728125 54.96261719 28.145625 54.92523438 30.28125 54.88671875 C32.3135009 54.83800041 34.34575066 54.78917843 36.37792969 54.73754883 C37.7782107 54.70452333 39.17861769 54.67642345 40.57910156 54.65356445 C53.67871285 54.57726869 53.67871285 54.57726869 64.9375 48.5 C69.12515429 43.42405541 68.59133845 37.28817653 68 31 C65.70892959 26.06538681 62.70609835 23.64718032 58 21 C53.89361454 19.74997723 49.77544322 19.77375446 45.515625 19.68359375 C44.43063721 19.65561707 44.43063721 19.65561707 43.32373047 19.6270752 C40.63260624 19.55899364 37.94128935 19.49870727 35.25 19.4375 C29.2275 19.293125 23.205 19.14875 17 19 C17 42.1 17 65.2 17 89 C11.39 89 5.78 89 0 89 C0 59.63 0 30.26 0 0 Z " fill="#D62D38" transform="translate(684,22)"/>
<path d="M0 0 C6.17456315 4.7875236 12.29037299 10.93463481 13.9609375 18.7734375 C14.05632812 19.65257813 14.15171875 20.53171875 14.25 21.4375 C12.3596624 22.13996995 10.46243172 22.82390849 8.5625 23.5 C7.50675781 23.88285156 6.45101562 24.26570313 5.36328125 24.66015625 C2.10171869 25.47452382 0.38895777 25.59136775 -2.75 24.4375 C-3.9026214 22.72503392 -5.05374471 21.01150333 -6.19140625 19.2890625 C-10.40220787 14.28675681 -16.88204974 12.28479853 -23.1875 11.5 C-31.94916571 11.10455105 -39.6195059 12.34006883 -46.8046875 17.59375 C-52.32614638 22.82693994 -54.41803751 29.20497831 -55 36.625 C-54.48044537 44.54820807 -52.41782078 50.96536333 -46.81640625 56.7421875 C-40.34417952 62.05210508 -33.19157084 63.10990533 -24.99609375 62.8203125 C-16.74562333 61.84733284 -9.24610592 58.84695297 -3.75 52.4375 C-3.04060246 51.12640223 -2.3622227 49.79669299 -1.75 48.4375 C0.14692143 48.89130895 2.04249595 49.35074992 3.9375 49.8125 C5.52111328 50.19535156 5.52111328 50.19535156 7.13671875 50.5859375 C9.95406766 51.35655489 12.56668325 52.29248543 15.25 53.4375 C9.00806307 67.6237203 1.37228684 74.55728599 -12.75 80.4375 C-24.21302557 84.49920197 -37.46330983 83.23404528 -48.41015625 78.21875 C-58.19533053 72.77413989 -65.97175434 65.0906711 -69.75 54.4375 C-73.90536116 39.51521113 -73.68900921 26.63167384 -66.1796875 12.74609375 C-60.22529942 3.13122119 -50.88695989 -4.29247031 -39.8046875 -7.125 C-25.45693946 -9.17992044 -12.29472547 -8.17968758 0 0 Z " fill="#D62D38" transform="translate(458.75,29.5625)"/>
<path d="M0 0 C0.70706085 0.00359528 1.4141217 0.00719055 2.14260864 0.01089478 C3.25473473 0.01067574 3.25473473 0.01067574 4.389328 0.01045227 C6.85130696 0.01115152 9.31321119 0.01894442 11.775177 0.02676392 C13.47768614 0.02862806 15.18019582 0.03005198 16.88270569 0.03105164 C21.37245148 0.03487714 25.86216513 0.0447077 30.35189819 0.05575562 C34.92983566 0.06596903 39.50777831 0.07054911 44.08572388 0.07559204 C53.07467259 0.08632995 62.06358898 0.103927 71.05252075 0.12442017 C71.05252075 6.39442017 71.05252075 12.66442017 71.05252075 19.12442017 C60.49252075 19.12442017 49.93252075 19.12442017 39.05252075 19.12442017 C39.05252075 42.22442017 39.05252075 65.32442017 39.05252075 89.12442017 C33.44252075 89.12442017 27.83252075 89.12442017 22.05252075 89.12442017 C22.05252075 66.02442017 22.05252075 42.92442017 22.05252075 19.12442017 C12.81252075 19.12442017 3.57252075 19.12442017 -5.94747925 19.12442017 C-5.96810425 16.17504517 -5.98872925 13.22567017 -6.00997925 10.18692017 C-6.01908325 9.25629761 -6.02818726 8.32567505 -6.03756714 7.36685181 C-6.0400647 6.63845093 -6.04256226 5.91005005 -6.0451355 5.15957642 C-6.05037231 4.41071167 -6.05560913 3.66184692 -6.06100464 2.89028931 C-5.81773848 -0.89367655 -3.16285241 0.00678452 0 0 Z " fill="#D62F3A" transform="translate(189.94747924804688,21.875579833984375)"/>
<path d="M0 0 C4.25554165 -0.6007324 8.24576652 -0.90359591 12.30078125 0.73046875 C16.80770305 4.80730929 19.24418888 10.76395466 21.92480469 16.11328125 C24.19340818 20.42829711 26.90790962 24.43048464 29.61328125 28.48046875 C30.71947359 30.16794468 31.82361431 31.85676715 32.92578125 33.546875 C33.75916016 34.82328857 33.75916016 34.82328857 34.609375 36.12548828 C38.05638089 41.43431519 41.44135981 46.78269192 44.83227539 52.12744141 C48.09830549 57.27360995 51.37620703 62.41182294 54.671875 67.5390625 C55.4084566 68.68594778 56.14502893 69.83283902 56.8815918 70.97973633 C58.30157349 73.19055069 59.7239925 75.39973391 61.14770508 77.6081543 C61.79118896 78.61015869 62.43467285 79.61216309 63.09765625 80.64453125 C63.66838867 81.53092285 64.23912109 82.41731445 64.82714844 83.33056641 C66.11233691 85.42357547 67.24693876 87.514054 68.30078125 89.73046875 C65.25427493 89.97479252 62.22737106 90.15202289 59.17578125 90.29296875 C58.31984375 90.36837891 57.46390625 90.44378906 56.58203125 90.52148438 C53.90746932 90.61406536 51.85975947 90.5297333 49.30078125 89.73046875 C46.60620638 87.10825943 45.04432038 84.03419498 43.30078125 80.73046875 C42.26527836 79.04504339 41.21829784 77.36661775 40.16015625 75.6953125 C38.58298426 73.14924968 37.00995333 70.60110058 35.44921875 68.04492188 C34.94132812 67.22830078 34.4334375 66.41167969 33.91015625 65.5703125 C33.45608398 64.83159912 33.00201172 64.09288574 32.53417969 63.33178711 C32.1271582 62.80335205 31.72013672 62.27491699 31.30078125 61.73046875 C30.64078125 61.73046875 29.98078125 61.73046875 29.30078125 61.73046875 C27.84230085 63.65784878 26.51400695 65.57645567 25.203125 67.6015625 C24.80879776 68.19848404 24.41447052 68.79540558 24.00819397 69.41041565 C22.74499529 71.32537501 21.491425 73.24641774 20.23828125 75.16796875 C18.9796246 77.08460861 17.71906053 78.99997731 16.45765686 80.91481018 C15.67212164 82.10873402 14.88857313 83.30396771 14.10716248 84.50059509 C11.40845647 88.62279353 11.40845647 88.62279353 10.30078125 89.73046875 C8.81206265 89.81716307 7.31933625 89.83750369 5.828125 89.828125 C4.92900391 89.82490234 4.02988281 89.82167969 3.10351562 89.81835938 C1.68522461 89.80579102 1.68522461 89.80579102 0.23828125 89.79296875 C-0.71111328 89.78845703 -1.66050781 89.78394531 -2.63867188 89.77929688 C-4.99225244 89.76746984 -7.34569456 89.75014969 -9.69921875 89.73046875 C-6.40670946 83.5995719 -2.84787825 77.74668803 1.0390625 71.9765625 C1.56469284 71.19023941 2.09032318 70.40391632 2.63188171 69.59376526 C4.28907087 67.11628652 5.95107826 64.64208561 7.61328125 62.16796875 C8.74706693 60.47482504 9.88053339 58.78146753 11.01367188 57.08789062 C13.77236227 52.96627229 16.53537462 48.84758351 19.30078125 44.73046875 C15.0579905 37.9328111 10.67237447 31.31063178 5.92578125 24.85546875 C4.7985362 23.30797812 3.67224097 21.75979517 2.546875 20.2109375 C2.00015137 19.4586084 1.45342773 18.7062793 0.89013672 17.93115234 C-1.44368444 14.69965251 -3.73777909 11.44180996 -6.01171875 8.16796875 C-6.72972656 7.13542969 -7.44773437 6.10289063 -8.1875 5.0390625 C-9.69921875 2.73046875 -9.69921875 2.73046875 -9.69921875 1.73046875 C-4.84175309 0.90983689 -4.84175309 0.90983689 0 0 Z " fill="#D62E39" transform="translate(109.69921875,21.26953125)"/>
<path d="M0 0 C5.61 0 11.22 0 17 0 C17 29.37 17 58.74 17 89 C11.39 89 5.78 89 0 89 C0 59.63 0 30.26 0 0 Z " fill="#D62F39" transform="translate(270,22)"/>
<path d="M0 0 C2.16037861 0.2539542 4.30954422 0.60048364 6.45385742 0.96606445 C2.47209192 8.57003496 -1.9042128 15.74896693 -6.73364258 22.84106445 C-7.95729998 24.65028357 -9.17998961 26.46015768 -10.40161133 28.27075195 C-10.93423584 29.05434082 -11.46686035 29.83792969 -12.015625 30.64526367 C-13.5987049 33.04576735 -15.083767 35.4905165 -16.54614258 37.96606445 C-20.51554652 36.46103546 -22.09665732 34.1727373 -24.35864258 30.65356445 C-24.98383789 29.70868164 -25.6090332 28.76379883 -26.25317383 27.7902832 C-27.78654958 24.44094583 -27.50428256 23.44094476 -26.54614258 19.96606445 C-20.9236998 6.83038454 -14.87779784 -1.20515876 0 0 Z " fill="#D7343F" transform="translate(171.546142578125,21.033935546875)"/>
<path d="M0 0 C1.65 0 3.3 0 5 0 C5 9.57 5 19.14 5 29 C2.69 29 0.38 29 -2 29 C-3.5159375 29.3403125 -3.5159375 29.3403125 -5.0625 29.6875 C-8.94491683 30.10052307 -10.7520864 29.09309988 -14 27 C-16.17922676 25.1113368 -16.86550045 23.78308624 -17.3515625 20.953125 C-17.62331712 16.69086836 -17.37549111 13.86894473 -14.625 10.5 C-12 8 -12 8 -10 7 C-8.45386986 7.08651631 -6.91090613 7.24002636 -5.375 7.4375 C-4.14910156 7.59025391 -4.14910156 7.59025391 -2.8984375 7.74609375 C-1.95871094 7.87177734 -1.95871094 7.87177734 -1 8 C-0.67 5.36 -0.34 2.72 0 0 Z M-10.9375 13.5625 C-12.45826219 17.05130737 -11.94135898 19.36904394 -11 23 C-8.17431454 25.32038095 -8.17431454 25.32038095 -4.9375 24.8125 C-1.70259047 24.26245502 -1.70259047 24.26245502 0 21 C0.32502803 17.87973093 0.51151479 15.85252465 -1.125 13.125 C-4.59166683 11.0449999 -7.7733731 11.01078476 -10.9375 13.5625 Z " fill="#616161" transform="translate(676,143)"/>
<path d="M0 0 C2.4375 1 2.4375 1 4 2 C4 1.34 4 0.68 4 0 C5.65 0 7.3 0 9 0 C9 7.26 9 14.52 9 22 C6.33333333 22 3.66666667 22 1 22 C-0.11375 22.3403125 -0.11375 22.3403125 -1.25 22.6875 C-5.31622188 23.14957067 -7.50965111 22.0683549 -11 20 C-13.33217092 16.21022225 -14.01414521 13.82042216 -13.9375 9.375 C-12.91227616 5.68419417 -11.65160057 3.7319521 -9 1 C-5.97562661 -0.5121867 -3.33758466 -0.17263369 0 0 Z M-6.875 6.0625 C-8.64273274 9.1069286 -8.36823916 11.5631012 -8 15 C-7.10242444 17.14780077 -7.10242444 17.14780077 -5 18 C-1.41666667 18.08333333 -1.41666667 18.08333333 2 17 C3.6824493 15.38558027 3.6824493 15.38558027 4 13 C3.6639329 8.48569844 3.6639329 8.48569844 1 5 C-2.07108055 4.6732893 -4.15050101 4.51861724 -6.875 6.0625 Z " fill="#666566" transform="translate(475,150)"/>
<path d="M0 0 C3.3248434 1.93445434 5.52220478 3.28816415 6.58984375 7.11328125 C6.875 9.3125 6.875 9.3125 7 13 C-0.92 13.495 -0.92 13.495 -9 14 C-8.01 15.485 -8.01 15.485 -7 17 C-3.41642759 17.25015873 -3.41642759 17.25015873 0 17 C0 16.34 0 15.68 0 15 C1.98 15 3.96 15 6 15 C5.08986632 18.06135874 4.29125962 19.74300621 1.875 21.875 C-1.95122607 23.3722189 -5.15844563 23.29603955 -9 22 C-13.120882 18.58054473 -14.84257891 16.57421093 -15.375 11.25 C-15.35058775 7.89941932 -14.75601354 6.15105468 -12.625 3.5625 C-8.70967082 -0.25960706 -5.37010319 -0.85682537 0 0 Z M-9 6 C-9 6.99 -9 7.98 -9 9 C-5.7 9 -2.4 9 1 9 C-0.49150674 4.86576587 -0.49150674 4.86576587 -3.4375 4.125 C-6.24443417 3.73353649 -6.24443417 3.73353649 -9 6 Z " fill="#686768" transform="translate(142,150)"/>
<path d="M0 0 C2.9091534 1.26484931 4.46015566 2.25450067 6.3125 4.8125 C7 7 7 7 7 13 C1.72 13 -3.56 13 -9 13 C-8.67 14.32 -8.34 15.64 -8 17 C-4.58343976 17.16677282 -4.58343976 17.16677282 -1 17 C-0.34 16.34 0.32 15.68 1 15 C3.625 14.875 3.625 14.875 6 15 C5.62329917 17.18486483 5.12283891 18.80490291 3.9375 20.6875 C0.87588412 22.76149785 -2.38394054 23.12029943 -6 23 C-9.70462639 21.43582441 -12.00482374 19.49155846 -14 16 C-15.21559742 12.09272257 -15.07988244 10.248056 -13.8125 6.3125 C-10.44794685 0.16348907 -6.93146705 -1.01973869 0 0 Z M-7.3125 5.3125 C-7.869375 5.869375 -8.42625 6.42625 -9 7 C-9 7.66 -9 8.32 -9 9 C-5.37 9 -1.74 9 2 9 C0.50298224 4.89304073 0.50298224 4.89304073 -2.375 4.0625 C-5.06244667 3.77343776 -5.06244667 3.77343776 -7.3125 5.3125 Z " fill="#626162" transform="translate(609,150)"/>
<path d="M0 0 C7.91467367 0.0483093 7.91467367 0.0483093 10.5625 2.625 C13.35015905 7.16785179 13.36548817 10.82618252 13.3125 16.125 C13.30347656 17.29546875 13.29445313 18.4659375 13.28515625 19.671875 C13.27355469 20.56390625 13.26195312 21.4559375 13.25 22.375 C11.27 22.375 9.29 22.375 7.25 22.375 C6.92 17.095 6.59 11.815 6.25 6.375 C3.94 6.375 1.63 6.375 -0.75 6.375 C-1.08 11.655 -1.41 16.935 -1.75 22.375 C-3.73 22.375 -5.71 22.375 -7.75 22.375 C-7.77887814 18.89585059 -7.79675687 15.41673169 -7.8125 11.9375 C-7.82087891 10.94427734 -7.82925781 9.95105469 -7.83789062 8.92773438 C-7.84111328 7.98349609 -7.84433594 7.03925781 -7.84765625 6.06640625 C-7.85289307 5.19185791 -7.85812988 4.31730957 -7.86352539 3.41625977 C-7.61298288 -1.08865617 -3.71721401 0.10025681 0 0 Z " fill="#787878" transform="translate(539.75,149.625)"/>
<path d="M0 0 C3.15371124 2.71569579 4.13417831 4.93366922 5.25 8.9375 C5.06301221 13.2951284 3.97602848 16.12849684 1.0625 19.375 C-2.38665363 21.29119646 -4.80054295 21.86821128 -8.75 21.9375 C-12.31347797 20.70398839 -14.21294353 19.58196777 -16.625 16.6875 C-18.06158806 13.17584029 -18.15359922 10.70442609 -17.75 6.9375 C-14.42606051 -0.76004408 -7.7494317 -2.99409861 0 0 Z M-11.6875 6.0625 C-12.97551116 9.54770667 -12.84788302 11.40859028 -11.75 14.9375 C-8.51746204 17.09252531 -7.49849077 17.40606135 -3.75 16.9375 C-1.79374022 15.98201019 -1.79374022 15.98201019 -0.75 13.9375 C-0.24451405 9.2725149 -0.24451405 9.2725149 -1.875 5 C-5.66087034 2.85467348 -8.71831545 2.80597501 -11.6875 6.0625 Z " fill="#686768" transform="translate(255.75,151.0625)"/>
<path d="M0 0 C3.02508145 1.73602105 5.41790069 3.83580137 7 7 C7.39431433 11.73177192 7.45299639 14.09400722 5.3125 18.375 C2.82873403 21.19441002 1.65122129 22.23579089 -2 23 C-7.30379889 22.81057861 -10.19058032 21.69737793 -14 18 C-15.74221711 14.51556578 -15.58675154 10.80112955 -15 7 C-11.57312771 0.81117094 -6.90942994 -1.17934611 0 0 Z M-8.875 6.125 C-10.53577671 8.89296119 -10.38805206 10.83090818 -10 14 C-8.62073227 16.34261608 -8.62073227 16.34261608 -7 18 C-3.56769552 17.73606499 -3.56769552 17.73606499 0 17 C2.37222995 14.10420618 2.37222995 14.10420618 1.75 10.4375 C1.3141556 6.95407388 1.3141556 6.95407388 -1 5 C-4.10347254 4.66984335 -6.15781176 4.49468706 -8.875 6.125 Z " fill="#676667" transform="translate(367,150)"/>
<path d="M0 0 C3.51250564 2.00714608 5.69459727 4.08379181 7 8 C7.3666991 12.9504378 7.30511226 16.16180512 4 20 C0.25572901 22.16015634 -2.29819077 22.98789984 -6.625 23.0625 C-10.05032256 21.98415771 -11.98342678 20.88671534 -14.10546875 17.94140625 C-15.93196723 13.97734623 -16.06112798 10.20369929 -15 6 C-11.23844603 0.26702919 -6.51981088 -1.13837968 0 0 Z M-8.875 6.0625 C-10.64273274 9.1069286 -10.36823916 11.5631012 -10 15 C-9.10242444 17.14780077 -9.10242444 17.14780077 -7 18 C-3.41666667 18.08333333 -3.41666667 18.08333333 0 17 C1.6824493 15.38558027 1.6824493 15.38558027 2 13 C1.6639329 8.48569844 1.6639329 8.48569844 -1 5 C-4.07108055 4.6732893 -6.15050101 4.51861724 -8.875 6.0625 Z " fill="#666566" transform="translate(726,150)"/>
<path d="M0 0 C2 0.33333333 4 0.66666667 6 1 C6.33 0.67 6.66 0.34 7 0 C11.08463295 -0.39275317 13.32767657 -0.40924035 16.875 1.75 C20.68403049 5.78309111 20.11238987 9.86189376 20.0625 15.25 C20.05347656 16.51328125 20.04445313 17.7765625 20.03515625 19.078125 C20.02355469 20.04234375 20.01195312 21.0065625 20 22 C18.35 22 16.7 22 15 22 C14.34 16.72 13.68 11.44 13 6 C11.02 6 9.04 6 7 6 C5.00383446 7.99616554 5.59016573 11.81701963 5.4375 14.5625 C5.39431641 15.27341797 5.35113281 15.98433594 5.30664062 16.71679688 C5.20028223 18.47761912 5.09961154 20.2387832 5 22 C3.02 22 1.04 22 -1 22 C-1.02887814 18.52085059 -1.04675687 15.04173169 -1.0625 11.5625 C-1.07087891 10.56927734 -1.07925781 9.57605469 -1.08789062 8.55273438 C-1.09111328 7.60849609 -1.09433594 6.66425781 -1.09765625 5.69140625 C-1.10289307 4.81685791 -1.10812988 3.94230957 -1.11352539 3.04125977 C-1 1 -1 1 0 0 Z " fill="#6F6E6F" transform="translate(628,150)"/>
<path d="M0 0 C3.51250564 2.00714608 5.69459727 4.08379181 7 8 C7.3666991 12.9504378 7.30511226 16.16180512 4 20 C0.25572901 22.16015634 -2.29819077 22.98789984 -6.625 23.0625 C-10.05032256 21.98415771 -11.98342678 20.88671534 -14.10546875 17.94140625 C-15.93196723 13.97734623 -16.06112798 10.20369929 -15 6 C-11.23844603 0.26702919 -6.51981088 -1.13837968 0 0 Z M-8.875 6.0625 C-10.64273274 9.1069286 -10.36823916 11.5631012 -10 15 C-9.10242444 17.14780077 -9.10242444 17.14780077 -7 18 C-3.41666667 18.08333333 -3.41666667 18.08333333 0 17 C1.6824493 15.38558027 1.6824493 15.38558027 2 13 C1.6639329 8.48569844 1.6639329 8.48569844 -1 5 C-4.07108055 4.6732893 -6.15050101 4.51861724 -8.875 6.0625 Z " fill="#666566" transform="translate(88,150)"/>
<path d="M0 0 C13.18436015 -0.49287328 13.18436015 -0.49287328 16.921875 1.765625 C19.10585321 4.1138121 19.66650917 4.86748866 19.5625 8 C19.35324196 10.7356661 18.97528921 12.0449287 17.625 14.5 C13.46285285 16.8783698 9.74014469 16.2494813 5 16 C5 19.63 5 23.26 5 27 C3.35 27 1.7 27 0 27 C0 18.09 0 9.18 0 0 Z M5 4 C5 6.64 5 9.28 5 12 C8.41656024 12.16677282 8.41656024 12.16677282 12 12 C12.66 11.34 13.32 10.68 14 10 C13.71016731 6.69316534 13.71016731 6.69316534 12 4 C9.66702567 3.95907063 7.33294775 3.95758277 5 4 Z " fill="#5E5D5E" transform="translate(21,145)"/>
<path d="M0 0 C2.66666667 0 5.33333333 0 8 0 C9.7015625 -0.12375 9.7015625 -0.12375 11.4375 -0.25 C15 0 15 0 17.375 1.875 C20.43430183 5.87562547 20.11706721 9.26432111 20.0625 14.125 C20.05798828 14.87910156 20.05347656 15.63320312 20.04882812 16.41015625 C20.03703499 18.27347127 20.01909942 20.13674555 20 22 C18.35 22 16.7 22 15 22 C14.93941406 20.92878906 14.87882812 19.85757813 14.81640625 18.75390625 C14.73201463 17.35675609 14.64736594 15.95962143 14.5625 14.5625 C14.52318359 13.85544922 14.48386719 13.14839844 14.44335938 12.41992188 C14.52375562 8.91309581 14.52375562 8.91309581 13 6 C10 5.83333333 10 5.83333333 7 6 C5.00383446 7.99616554 5.59016573 11.81701963 5.4375 14.5625 C5.39431641 15.27341797 5.35113281 15.98433594 5.30664062 16.71679688 C5.20028223 18.47761912 5.09961154 20.2387832 5 22 C3.35 22 1.7 22 0 22 C0 14.74 0 7.48 0 0 Z " fill="#636263" transform="translate(272,150)"/>
<path d="M0 0 C2.97 0.495 2.97 0.495 6 1 C6.33 0.67 6.66 0.34 7 0 C11.12409614 -0.39654771 13.32489085 -0.42561229 16.875 1.8125 C20.61287954 5.66031717 20.12377312 9.63953747 20.0625 14.6875 C20.05798828 15.38939453 20.05347656 16.09128906 20.04882812 16.81445312 C20.03706927 18.54300538 20.01913454 20.27151365 20 22 C18.35 22 16.7 22 15 22 C14.93941406 21.09636719 14.87882812 20.19273437 14.81640625 19.26171875 C14.69072266 17.49248047 14.69072266 17.49248047 14.5625 15.6875 C14.48128906 14.51574219 14.40007812 13.34398437 14.31640625 12.13671875 C14.1132629 8.97409042 14.1132629 8.97409042 13 6 C11.00045254 5.95745644 8.99958364 5.95919217 7 6 C5.00383446 7.99616554 5.59016573 11.81701963 5.4375 14.5625 C5.39431641 15.27341797 5.35113281 15.98433594 5.30664062 16.71679688 C5.20028223 18.47761912 5.09961154 20.2387832 5 22 C3.35 22 1.7 22 0 22 C0 14.74 0 7.48 0 0 Z " fill="#646364" transform="translate(386,150)"/>
<path d="M0 0 C2.90717073 2.21863029 3.83981643 3.51944929 5 7 C3.35 7.33 1.7 7.66 0 8 C-0.33 7.01 -0.66 6.02 -1 5 C-2.98 5 -4.96 5 -7 5 C-7 5.99 -7 6.98 -7 8 C-5.7625 8.2475 -4.525 8.495 -3.25 8.75 C0.49987896 9.70911647 2.83626889 10.61329043 5 14 C5.125 17.0625 5.125 17.0625 4 20 C0.62672063 22.48980144 -1.43331069 23 -5.625 23 C-9.63430997 21.8120563 -10.84954285 20.52674973 -13 17 C-13 16.34 -13 15.68 -13 15 C-10.625 14.875 -10.625 14.875 -8 15 C-7.34 15.66 -6.68 16.32 -6 17 C-3.41645782 17.16687448 -3.41645782 17.16687448 -1 17 C-1 16.34 -1 15.68 -1 15 C-1.54269531 14.80664062 -2.08539062 14.61328125 -2.64453125 14.4140625 C-3.35996094 14.15367187 -4.07539062 13.89328125 -4.8125 13.625 C-5.52019531 13.36976563 -6.22789062 13.11453125 -6.95703125 12.8515625 C-9 12 -9 12 -12 10 C-12.5 6.5625 -12.5 6.5625 -12 3 C-8.38233016 -0.39841713 -4.80701799 -0.61180229 0 0 Z " fill="#6A696A" transform="translate(756,150)"/>
<path d="M0 0 C2.5713019 1.41584345 3.95179389 2.79817844 6 5 C6 5.99 6 6.98 6 8 C1.46511628 8.37790698 1.46511628 8.37790698 -1 6.375 C-1.99 5.694375 -1.99 5.694375 -3 5 C-5.73398135 5.70957237 -5.73398135 5.70957237 -8 7 C-8.020625 8.27875 -8.04125 9.5575 -8.0625 10.875 C-8.07410156 11.59429687 -8.08570313 12.31359375 -8.09765625 13.0546875 C-8.12649242 15.08185404 -8.12649242 15.08185404 -7 17 C-4.08347826 17.16681109 -4.08347826 17.16681109 -1 17 C-0.34 16.34 0.32 15.68 1 15 C3.625 14.875 3.625 14.875 6 15 C5.4375 17.3125 5.4375 17.3125 4 20 C0.4652947 22.03925305 -2.03327994 23 -6.125 23 C-9.93617016 21.6743756 -11.58695024 20.2403811 -14 17 C-15.4011702 12.82227781 -15.29844884 9.83251518 -13.8125 5.6875 C-10.21271249 0.34988403 -6.49438226 -1.35610664 0 0 Z " fill="#6B6B6B" transform="translate(204,150)"/>
<path d="M0 0 C3.03965634 1.8108591 4.60422231 2.90400023 5.8125 6.25 C5.874375 6.8275 5.93625 7.405 6 8 C4.02 8 2.04 8 0 8 C-0.33 7.34 -0.66 6.68 -1 6 C-3.32156597 5.59270772 -5.6568787 5.25561323 -8 5 C-8.2226746 6.43534841 -8.42761906 7.87345525 -8.625 9.3125 C-8.79902344 10.51326172 -8.79902344 10.51326172 -8.9765625 11.73828125 C-9.21533407 14.28723215 -9.21533407 14.28723215 -7 17 C-3.41642759 17.25015873 -3.41642759 17.25015873 0 17 C0 16.34 0 15.68 0 15 C1.98 15 3.96 15 6 15 C3.81089907 19.49981858 1.74615635 21.35709972 -3 23 C-7.04004349 22.93034408 -9.18668517 22.64209066 -12.375 20.125 C-15.01493965 16.67277123 -15.39108419 13.36690782 -15.359375 9.0703125 C-14.71820971 5.3766429 -12.64068388 3.57781045 -10 1 C-6.79337112 -0.60331444 -3.47896647 -0.48652213 0 0 Z " fill="#6A696A" transform="translate(336,150)"/>
<path d="M0 0 C3.4203866 1.17013226 3.91540482 1.87310723 6 5 C6 5.99 6 6.98 6 8 C1.46511628 8.37790698 1.46511628 8.37790698 -1 6.375 C-1.99 5.694375 -1.99 5.694375 -3 5 C-5.73398135 5.70957237 -5.73398135 5.70957237 -8 7 C-8.020625 8.27875 -8.04125 9.5575 -8.0625 10.875 C-8.07410156 11.59429687 -8.08570313 12.31359375 -8.09765625 13.0546875 C-8.12649242 15.08185404 -8.12649242 15.08185404 -7 17 C-4.08347826 17.16681109 -4.08347826 17.16681109 -1 17 C-0.34 16.34 0.32 15.68 1 15 C3.625 14.875 3.625 14.875 6 15 C5.6452187 17.57216446 5.1957002 18.79677287 3.375 20.6875 C0.15446947 22.46726687 -2.32383034 22.87323553 -6 23 C-9.29141622 22.05055301 -11.20873145 21.21476439 -13.109375 18.296875 C-15.08571167 13.89345821 -15.35288709 10.36004 -13.8515625 5.765625 C-10.83522317 -0.48843636 -6.14985913 -0.58570087 0 0 Z " fill="#666566" transform="translate(173,150)"/>
<path d="M0 0 C3.85326762 0.06226106 6.27262857 0.63352207 9.25 3.25 C10.0625 5.9375 10.0625 5.9375 10.25 8.25 C8.6 8.25 6.95 8.25 5.25 8.25 C4.92 7.59 4.59 6.93 4.25 6.25 C1.8772914 5.32533247 1.8772914 5.32533247 -0.75 5.25 C-2.50312484 6.39299761 -2.50312484 6.39299761 -3.75 8.25 C-4.11146457 10.53330101 -4.11146457 10.53330101 -3.9375 12.9375 C-3.91042969 13.74574219 -3.88335938 14.55398437 -3.85546875 15.38671875 C-3.82066406 16.00160156 -3.78585937 16.61648437 -3.75 17.25 C-0.33343976 17.41677282 -0.33343976 17.41677282 3.25 17.25 C3.91 16.59 4.57 15.93 5.25 15.25 C7.875 15.125 7.875 15.125 10.25 15.25 C9.8952187 17.82216446 9.4457002 19.04677287 7.625 20.9375 C4.42043448 22.7084441 1.90361218 23.12180308 -1.75 23.25 C-5.4987863 21.63120591 -7.58317079 19.67066858 -9.75 16.25 C-10.4135265 12.8494267 -10.36221119 9.65852716 -9.75 6.25 C-7.3125 3.1875 -7.3125 3.1875 -4.75 1.25 C-3.75 0.25 -3.75 0.25 0 0 Z " fill="#676667" transform="translate(573.75,149.75)"/>
<path d="M0 0 C1.65 0 3.3 0 5 0 C5 1.65 5 3.3 5 5 C6.65 5 8.3 5 10 5 C10 6.65 10 8.3 10 10 C8.35 10 6.7 10 5 10 C5.33 13.96 5.66 17.92 6 22 C7.32 22.33 8.64 22.66 10 23 C10 24.32 10 25.64 10 27 C3.58718861 27.36298932 3.58718861 27.36298932 1.28125 25.9375 C-0.69137102 22.95451212 -0.28441673 20.33380768 -0.1875 16.8125 C-0.16042969 15.54019531 -0.13335937 14.26789063 -0.10546875 12.95703125 C-0.07066406 11.98121094 -0.03585937 11.00539062 0 10 C-0.99 9.67 -1.98 9.34 -3 9 C-2.67 7.68 -2.34 6.36 -2 5 C-1.34 5 -0.68 5 0 5 C0 3.35 0 1.7 0 0 Z " fill="#676767" transform="translate(419,145)"/>
<path d="M0 0 C1.65 0 3.3 0 5 0 C5 1.65 5 3.3 5 5 C6.65 5 8.3 5 10 5 C10 6.65 10 8.3 10 10 C8.35 10 6.7 10 5 10 C5.33 13.96 5.66 17.92 6 22 C7.32 22.33 8.64 22.66 10 23 C10 24.32 10 25.64 10 27 C3.58718861 27.36298932 3.58718861 27.36298932 1.28125 25.9375 C-0.69137102 22.95451212 -0.28441673 20.33380768 -0.1875 16.8125 C-0.16042969 15.54019531 -0.13335937 14.26789063 -0.10546875 12.95703125 C-0.07066406 11.98121094 -0.03585938 11.00539062 0 10 C-0.66 10 -1.32 10 -2 10 C-2 8.35 -2 6.7 -2 5 C-1.34 5 -0.68 5 0 5 C0 3.35 0 1.7 0 0 Z " fill="#656465" transform="translate(107,145)"/>
<path d="M0 0 C0.9075 0.165 1.815 0.33 2.75 0.5 C5.91372977 0.98672766 7.94173339 0.80954116 11 0 C11 1.65 11 3.3 11 5 C9.35 5.66 7.7 6.32 6 7 C5.67 11.95 5.34 16.9 5 22 C3.02 22 1.04 22 -1 22 C-1.02887814 18.52085059 -1.04675687 15.04173169 -1.0625 11.5625 C-1.07087891 10.56927734 -1.07925781 9.57605469 -1.08789062 8.55273438 C-1.09111328 7.60849609 -1.09433594 6.66425781 -1.09765625 5.69140625 C-1.10289307 4.81685791 -1.10812988 3.94230957 -1.11352539 3.04125977 C-1 1 -1 1 0 0 Z " fill="#767676" transform="translate(441,150)"/>
<path d="M0 0 C0.9075 0.165 1.815 0.33 2.75 0.5 C5.91372977 0.98672766 7.94173339 0.80954116 11 0 C11 1.65 11 3.3 11 5 C9.35 5.66 7.7 6.32 6 7 C5.67 11.95 5.34 16.9 5 22 C3.02 22 1.04 22 -1 22 C-1.02887814 18.52085059 -1.04675687 15.04173169 -1.0625 11.5625 C-1.07087891 10.56927734 -1.07925781 9.57605469 -1.08789062 8.55273438 C-1.09111328 7.60849609 -1.09433594 6.66425781 -1.09765625 5.69140625 C-1.10289307 4.81685791 -1.10812988 3.94230957 -1.11352539 3.04125977 C-1 1 -1 1 0 0 Z " fill="#757575" transform="translate(52,150)"/>
<path d="M0 0 C5.26855601 -0.34547908 5.26855601 -0.34547908 8 0 C10.61917763 2.36570882 11.34938729 4.60751945 12 8 C12.06790675 10.24907152 12.08499984 12.50001605 12.0625 14.75 C12.05347656 15.92046875 12.04445313 17.0909375 12.03515625 18.296875 C12.02355469 19.18890625 12.01195312 20.0809375 12 21 C10.02 21 8.04 21 6 21 C5.67 15.72 5.34 10.44 5 5 C2.69 4.67 0.38 4.34 -2 4 C-1.34 2.68 -0.68 1.36 0 0 Z " fill="#6E6D6E" transform="translate(541,151)"/>
<path d="M0 0 C1.65 0.33 3.3 0.66 5 1 C5 7.93 5 14.86 5 22 C3.02 22 1.04 22 -1 22 C-1.02887814 18.52085059 -1.04675687 15.04173169 -1.0625 11.5625 C-1.07087891 10.56927734 -1.07925781 9.57605469 -1.08789062 8.55273438 C-1.09111328 7.60849609 -1.09433594 6.66425781 -1.09765625 5.69140625 C-1.10289307 4.81685791 -1.10812988 3.94230957 -1.11352539 3.04125977 C-1 1 -1 1 0 0 Z " fill="#7D7C7D" transform="translate(515,150)"/>
<path d="M0 0 C1.65 0 3.3 0 5 0 C5 7.26 5 14.52 5 22 C3.35 22 1.7 22 0 22 C0 14.74 0 7.48 0 0 Z " fill="#656465" transform="translate(694,150)"/>
<path d="M0 0 C1.65 0 3.3 0 5 0 C5 7.26 5 14.52 5 22 C3.35 22 1.7 22 0 22 C0 14.74 0 7.48 0 0 Z " fill="#646364" transform="translate(222,150)"/>
<path d="M0 0 C0 1.32 0 2.64 0 4 C-1.28913487 4.67154933 -2.58140204 5.33708859 -3.875 6 C-4.59429687 6.37125 -5.31359375 6.7425 -6.0546875 7.125 C-8 8 -8 8 -10 8 C-10 6.68 -10 5.36 -10 4 C-3.375 0 -3.375 0 0 0 Z " fill="#868686" transform="translate(254,141)"/>
<path d="M0 0 C1.65 0.33 3.3 0.66 5 1 C4.67 2.65 4.34 4.3 4 6 C2.35 5.67 0.7 5.34 -1 5 C-0.67 3.35 -0.34 1.7 0 0 Z " fill="#797879" transform="translate(515,142)"/>
<path d="M0 0 C1.65 0.33 3.3 0.66 5 1 C4.67 2.65 4.34 4.3 4 6 C2.35 5.67 0.7 5.34 -1 5 C-0.67 3.35 -0.34 1.7 0 0 Z " fill="#797979" transform="translate(222,142)"/>
<path d="M0 0 C1.32 0 2.64 0 4 0 C5.125 3.75 5.125 3.75 4 6 C2.35 5.67 0.7 5.34 -1 5 C-0.67 3.35 -0.34 1.7 0 0 Z " fill="#727172" transform="translate(695,142)"/>
<path d="M0 0 C0.66 0.33 1.32 0.66 2 1 C-1.3 4.3 -4.6 7.6 -8 11 C-8.66 10.67 -9.32 10.34 -10 10 C-3.84965831 2.51708428 -3.84965831 2.51708428 0 0 Z " fill="#E06169" transform="translate(405,29)"/>
<path d="M0 0 C0 0.33 0 0.66 0 1 C-1.5159375 1.061875 -1.5159375 1.061875 -3.0625 1.125 C-7.85902082 1.76127317 -10.67514558 4.69535746 -14 8 C-13.12269491 5.29497597 -12.28331029 3.31599994 -10.375 1.1875 C-6.84016181 -0.5799191 -3.92581331 -0.19629067 0 0 Z " fill="#848384" transform="translate(173,150)"/>
<path d="M0 0 C0 0.33 0 0.66 0 1 C-1.5159375 1.061875 -1.5159375 1.061875 -3.0625 1.125 C-7.85902082 1.76127317 -10.67514558 4.69535746 -14 8 C-13.12269491 5.29497597 -12.28331029 3.31599994 -10.375 1.1875 C-6.84016181 -0.5799191 -3.92581331 -0.19629067 0 0 Z " fill="#848384" transform="translate(609,150)"/>
<path d="M0 0 C0.99 0 1.98 0 3 0 C3 1.32 3 2.64 3 4 C1.02 4.33 -0.96 4.66 -3 5 C-1.6875 2.5 -1.6875 2.5 0 0 Z " fill="#767576" transform="translate(251,141)"/>
</svg>
