<?xml version="1.0" encoding="UTF-8"?>
<svg version="1.1" xmlns="http://www.w3.org/2000/svg" width="2084" height="2084">
<path d="M0 0 C1.19915039 0.01788574 2.39830078 0.03577148 3.63378906 0.05419922 C89.80660859 1.41963807 175.9830586 13.59639604 473.26123047 130.36083984 C475.88881434 131.93345511 478.52338492 133.49363283 481.16015625 135.05078125 C499.18597239 145.73287673 516.8528581 156.95637992 534 169 C535.36450903 169.95192944 536.72909404 170.90374996 538.09375 171.85546875 C553.55870147 182.67391916 568.76574312 193.79665724 583.40869141 205.70849609 C585.67730346 207.54969858 587.96396471 209.36800253 590.25 211.1875 C591.83435214 212.45706296 593.41768853 213.72789457 595 215 C595.83402344 215.6703125 596.66804688 216.340625 597.52734375 217.03125 C608.99504089 226.32665209 620.06784901 236.08350493 631 246 C632.60394529 247.43774701 634.20811761 248.87524077 635.8125 250.3125 C637.54269297 251.87386347 639.27170936 253.43653108 641 255 C642.34735229 256.21707642 642.34735229 256.21707642 643.72192383 257.45874023 C652.58550989 265.52470641 661.08837426 273.93472797 669.54980469 282.41943359 C671.88883481 284.76386677 674.23322197 287.10284871 676.578125 289.44140625 C678.09146687 290.95540834 679.60449881 292.4697203 681.1171875 293.984375 C682.15019485 295.01434601 682.15019485 295.01434601 683.20407104 296.06512451 C687.103687 299.9834149 690.82961841 304.00076379 694.43231201 308.19419861 C696.99502238 311.1461546 699.69291641 313.96945854 702.375 316.8125 C707.10196376 321.85910944 711.57509143 327.03334148 715.8984375 332.43359375 C717.98001427 334.97559363 720.1503838 337.39529335 722.375 339.8125 C726.35683587 344.18700826 730.01742083 348.74529075 733.63891602 353.41650391 C736.60052544 357.23323668 739.61971958 360.99231252 742.69262695 364.7199707 C750.50583659 374.21004703 757.80736524 384.03419779 765 394 C765.47163574 394.64888184 765.94327148 395.29776367 766.42919922 395.96630859 C782.59198572 418.24063045 797.89770313 441.37107937 812 465 C812.55026855 465.91942383 813.10053711 466.83884766 813.66748047 467.78613281 C822.33724452 482.32439744 830.50591825 497.10449179 838.43505859 512.05810547 C839.82560042 514.67215055 841.23101817 517.27723849 842.64453125 519.87890625 C849.73568682 533.00659178 855.99921127 546.51588124 862.1439209 560.10681152 C862.71246406 561.36412449 863.28187494 562.62104547 863.85217285 563.87756348 C879.0807909 597.43551116 892.14881581 631.76998587 903.32543945 666.88317871 C903.98229289 668.94443378 904.6440234 671.00406822 905.30664062 673.06347656 C929.25556371 747.75150783 943.24080808 826.65999663 947 905 C947.06195053 906.26947983 947.06195053 906.26947983 947.12515259 907.56460571 C947.92049493 924.23320145 948.20275659 940.87603127 948.1875 957.5625 C948.18689575 958.79945618 948.1862915 960.03641235 948.18566895 961.31085205 C948.15679418 983.26236088 947.62132394 1005.10746311 946 1027 C945.9391925 1027.82945129 945.87838501 1028.65890259 945.81573486 1029.51348877 C939.27860908 1117.52035733 920.79383623 1204.58967142 827.49462891 1424.37792969 C825.70962226 1427.509418 823.97637062 1430.66701105 822.24951172 1433.83081055 C801.94647462 1470.93333721 777.60612792 1506.24901233 751.77880859 1539.69384766 C750.20649004 1541.73229414 748.64183229 1543.77618954 747.08203125 1545.82421875 C739.6960637 1555.51212531 731.97392784 1564.89727335 724.07739258 1574.1706543 C721.24193779 1577.50651243 718.48025541 1580.88941662 715.75 1584.3125 C711.25627715 1589.84448372 706.40140723 1595.00694839 701.49121094 1600.16723633 C698.37312104 1603.4468489 695.3156053 1606.75567021 692.3515625 1610.17578125 C689.68412528 1613.25010933 686.91784978 1616.15893574 684 1619 C681.13073759 1621.83489999 678.35513289 1624.67120659 675.75 1627.75 C668.51001228 1636.19378616 660.40899039 1644.11546967 651.921875 1651.296875 C649.51026068 1653.43399663 647.26460743 1655.70794279 645 1658 C641.4882345 1661.54918157 637.90991099 1664.91968457 634.1171875 1668.1640625 C631.59400545 1670.3520617 629.14445481 1672.61293113 626.6875 1674.875 C622.24749216 1678.92521292 617.68065719 1682.75534122 613.00390625 1686.52734375 C609.50331836 1689.40884197 606.09756627 1692.3875972 602.6875 1695.375 C595.64901364 1701.51265922 588.40840644 1707.31739544 581 1713 C579.82775879 1713.90322998 579.82775879 1713.90322998 578.63183594 1714.82470703 C576.00760575 1716.845475 573.37950461 1718.86110089 570.75 1720.875 C569.95384277 1721.48641846 569.15768555 1722.09783691 568.33740234 1722.7277832 C553.49969638 1734.04098581 538.23296523 1744.68764658 522.6875 1755 C521.83427155 1755.56715729 520.98104309 1756.13431458 520.10195923 1756.71865845 C507.54891228 1765.05876177 494.97823984 1773.33126681 482 1781 C481.03513672 1781.57153809 480.07027344 1782.14307617 479.07617188 1782.73193359 C420.61699735 1817.21699699 359.25583555 1845.23683377 295 1867 C294.35069519 1867.2208728 293.70139038 1867.44174561 293.03240967 1867.66931152 C271.27606705 1875.06483493 249.26337241 1881.32396352 227 1887 C226.23000671 1887.19636047 225.46001343 1887.39272095 224.66668701 1887.59503174 C170.58972692 1901.32807234 115.60186938 1909.70248281 60 1914 C59.23562622 1914.06058594 58.47125244 1914.12117188 57.68371582 1914.18359375 C12.1897373 1917.77030763 -34.51465304 1917.60024008 -80 1914 C-80.81958191 1913.93683594 -81.63916382 1913.87367187 -82.48358154 1913.80859375 C-110.15261063 1911.67078547 -137.59859161 1908.38822004 -165 1904 C-165.81901794 1903.8689386 -166.63803589 1903.7378772 -167.48187256 1903.60284424 C-245.30487376 1891.06186499 -321.37249081 1868.14722322 -500 1782 C-500.93585938 1781.44521973 -501.87171875 1780.89043945 -502.8359375 1780.31884766 C-537.69024462 1759.62711997 -571.40476983 1736.39307427 -603 1711 C-603.6403418 1710.4858252 -604.28068359 1709.97165039 -604.94042969 1709.44189453 C-613.52235922 1702.53777578 -622.01262475 1695.53394933 -630.38476562 1688.37695312 C-632.04834543 1686.95878654 -633.71895876 1685.54924683 -635.390625 1684.140625 C-642.33075963 1678.27060679 -649.07391345 1672.2327109 -655.67529297 1665.9831543 C-658.60156789 1663.21610196 -661.55461215 1660.50952219 -664.61547852 1657.89160156 C-669.52616484 1653.60429598 -674.12013609 1649.02356726 -678.72265625 1644.41015625 C-679.62696884 1643.50680038 -680.53128143 1642.60344452 -681.46299744 1641.67271423 C-683.36434943 1639.77203932 -685.26467553 1637.87040392 -687.16333008 1635.96704102 C-689.57585861 1633.54881608 -691.99285081 1631.13511042 -694.41121769 1628.72272587 C-696.74664575 1626.39181599 -699.07822177 1624.05706044 -701.41015625 1621.72265625 C-702.26762955 1620.86720718 -703.12510284 1620.01175812 -704.00856018 1619.13038635 C-708.33575434 1614.78644614 -712.52538285 1610.38262278 -716.51368713 1605.72442627 C-718.8871479 1602.97072738 -721.38818461 1600.33840084 -723.875 1597.6875 C-728.41348524 1592.81414451 -732.69348797 1587.79696023 -736.86328125 1582.6015625 C-738.95882494 1580.05013271 -741.13963155 1577.61673227 -743.375 1575.1875 C-747.89653512 1570.21929677 -752.01152206 1564.99196423 -756.125 1559.6875 C-758.49012633 1556.63925817 -760.90408792 1553.63449264 -763.33447266 1550.63818359 C-770.26854182 1542.07310774 -776.81737181 1533.24784302 -783.29589844 1524.33496094 C-784.86477993 1522.18527862 -786.44880147 1520.0479491 -788.0390625 1517.9140625 C-839.67213043 1448.16368697 -880.35597021 1369.1315222 -957.76123047 815.95849609 C-945.47498273 735.16930919 -923.40874615 656.23728692 -768 372 C-767.51789063 371.37609375 -767.03578125 370.7521875 -766.5390625 370.109375 C-760.74238839 362.61533223 -754.77951047 355.29642298 -748.625 348.09375 C-746.16084036 345.2044868 -743.76339 342.26481542 -741.375 339.3125 C-737.74931653 334.85808887 -733.97570347 330.57051399 -730.109375 326.32421875 C-728.25373343 324.27957665 -726.43243624 322.21215851 -724.625 320.125 C-720.36078785 315.23770662 -715.97555421 310.46246644 -711.57177734 305.70117188 C-710.52072864 304.56359695 -709.47158361 303.4242603 -708.42431641 302.28320312 C-700.01282308 293.12542693 -691.34372057 284.23899666 -682.5625 275.4375 C-682.04821442 274.92062622 -681.53392883 274.40375244 -681.00405884 273.87121582 C-675.7147231 268.5608609 -670.41065447 263.31785081 -664.68530273 258.47094727 C-662.87202231 256.88829993 -661.18476093 255.21812502 -659.5 253.5 C-656.51127663 250.46405075 -653.38293521 247.65491341 -650.15625 244.875 C-647.80037042 242.82640906 -645.4949254 240.72796998 -643.1875 238.625 C-638.87090287 234.7295343 -634.4259887 231.03141782 -629.90625 227.375 C-627.34683134 225.28343207 -624.82367784 223.15889954 -622.31103516 221.01196289 C-615.66274019 215.33241947 -608.86348549 209.88110828 -601.95556641 204.52148438 C-599.83329506 202.87029898 -597.71908887 201.20911807 -595.60546875 199.546875 C-587.18278281 192.93617656 -578.69417931 186.47680206 -569.91699219 180.34423828 C-567.80472427 178.86306824 -565.70308464 177.3674679 -563.6015625 175.87109375 C-533.87701632 154.78314569 -502.97987338 135.47012571 -471 118 C-469.92621094 117.40896484 -468.85242188 116.81792969 -467.74609375 116.20898438 C-393.17956238 75.22820474 -313.03774661 44.82367603 0 0 Z M-117 207 C-116.6285083 207.41975098 -116.2570166 207.83950195 -115.87426758 208.27197266 C-80.19685878 249.1510426 -73.03990901 302.64282135 -76.22705078 355.0859375 C-76.82291191 363.10641741 -77.80230392 371.04875979 -79 379 C-79.16628906 380.12164551 -79.33257813 381.24329102 -79.50390625 382.39892578 C-91.62192317 461.64851239 -126.84835506 536.37362004 -172 602 C-172.54333984 602.79035645 -173.08667969 603.58071289 -173.64648438 604.39501953 C-186.01121063 622.32528249 -198.92190289 639.80932388 -212.37890625 656.93359375 C-213.90445959 658.87821476 -215.42236768 660.82850454 -216.9375 662.78125 C-221.85430007 669.10395836 -226.88579751 675.30055099 -232.08886719 681.39013672 C-234.76677986 684.52714751 -237.38165001 687.70044206 -239.9375 690.9375 C-243.67086338 695.65010624 -247.57503122 700.20111794 -251.50317383 704.75097656 C-254.60459668 708.34997742 -257.64063569 711.9900575 -260.625 715.6875 C-264.42559563 720.37307187 -268.4463798 724.81211633 -272.53125 729.25 C-274.94378104 731.93737634 -277.2325621 734.68965444 -279.5 737.5 C-283.33951802 742.25883923 -287.39859679 746.76062975 -291.5390625 751.2578125 C-293.91039895 753.90015883 -296.15252997 756.60694167 -298.375 759.375 C-302.24089509 764.16980275 -306.34723298 768.66715828 -310.55371094 773.15917969 C-314.4980456 777.39512864 -318.16488001 781.806439 -321.7890625 786.3203125 C-324.1093495 789.13253315 -326.53071134 791.81797263 -329 794.5 C-333.01605847 798.86769492 -336.79385454 803.36849236 -340.51953125 807.984375 C-343.44969113 811.5467111 -346.46784043 815.02451417 -349.5 818.5 C-354.78910386 824.5718882 -359.93881966 830.73616295 -365 837 C-366.01765561 838.2478638 -367.03592745 839.4952252 -368.0546875 840.7421875 C-380.70593878 856.23935819 -392.97679131 872.00999212 -405 888 C-405.53818359 888.71542969 -406.07636719 889.43085937 -406.63085938 890.16796875 C-458.97531826 960.18630056 -502.19480769 1040.72538832 -519.49609375 1244.63085938 C-510.60445286 1304.33658135 -486.40311144 1362.48998723 -452 1412 C-451.55688477 1412.64001953 -451.11376953 1413.28003906 -450.65722656 1413.93945312 C-428.97086967 1445.20141583 -404.3372939 1473.70083211 -377.5 1500.625 C-376.58041504 1501.54925781 -375.66083008 1502.47351562 -374.71337891 1503.42578125 C-370.18253416 1507.94590308 -365.60009417 1512.33455803 -360.74267578 1516.50244141 C-358.33761295 1518.56921857 -356.0166237 1520.72336784 -353.6875 1522.875 C-349.27646827 1526.89380593 -344.76264642 1530.72865324 -340.1171875 1534.47265625 C-337.78762058 1536.35047916 -335.48742603 1538.26024117 -333.1953125 1540.18359375 C-323.69912362 1548.1310383 -313.95900701 1555.64616018 -303.91723633 1562.89111328 C-301.63061365 1564.54412581 -299.35044941 1566.2050334 -297.07299805 1567.87060547 C-286.12317496 1575.85737576 -274.98081651 1583.50838303 -263.6875 1591 C-262.83427155 1591.56715729 -261.98104309 1592.13431458 -261.10195923 1592.71865845 C-248.54914995 1601.05860387 -235.97984332 1609.33438591 -223 1617 C-221.53675293 1617.8652832 -221.53675293 1617.8652832 -220.04394531 1618.74804688 C-115.90489773 1681.16834072 -115.90489773 1681.16834072 0 1710 C-2.03865481 1702.98357491 -4.30592846 1696.07534759 -6.73046875 1689.18359375 C-7.45456822 1687.11210988 -8.17852126 1685.04057481 -8.90234375 1682.96899414 C-9.27601074 1681.90166046 -9.64967773 1680.83432678 -10.03466797 1679.73464966 C-38.91319745 1597.14080162 -64.99255018 1507.86281723 -25.125 1424 C-12.77782455 1398.80297981 4.16139492 1376.93788098 22.97265625 1356.2421875 C24.73967199 1354.28791576 26.46913529 1352.30940263 28.1875 1350.3125 C36.12229715 1341.21245292 44.45989888 1332.44466685 53.05859375 1323.97265625 C55.56190216 1321.42905314 57.8658862 1318.73979943 60.1875 1316.03125 C62.2109288 1313.76361428 64.33653347 1311.6342305 66.5 1309.5 C69.89268399 1306.14743221 73.09100684 1302.70524318 76.1953125 1299.0859375 C78.21651276 1296.74974499 80.29378839 1294.47035149 82.375 1292.1875 C86.26924618 1287.87225424 89.96654724 1283.42908245 93.62109375 1278.91015625 C95.72936637 1276.33107069 97.87288374 1273.79080984 100.03881836 1271.26049805 C105.94098225 1264.35901508 111.55899325 1257.27042479 117 1250 C117.51933105 1249.30664551 118.03866211 1248.61329102 118.57373047 1247.89892578 C173.56113775 1174.28804626 216.17758855 1092.24501726 276.56640625 681.78710938 C264.56906717 601.57041805 235.43994388 523.76302476 189 457 C188.52997559 456.3203418 188.05995117 455.64068359 187.57568359 454.94042969 C181.36705233 445.97980999 174.99468917 437.18154368 168.26074219 428.60791016 C166.94082099 426.92452498 165.63012883 425.23422547 164.3203125 423.54296875 C159.34188243 417.1351761 154.2524689 410.84592659 148.97802734 404.67919922 C146.15196902 401.374591 143.40237607 398.02235878 140.6875 394.625 C136.402493 389.35173913 131.80695987 384.40618061 127.13549805 379.47705078 C124.30591018 376.48911615 121.53382315 373.47720308 118.85766602 370.35058594 C114.71662697 365.60633836 110.30460771 361.16070806 105.84765625 356.71484375 C104.98869247 355.85492325 104.1297287 354.99500275 103.24473572 354.10902405 C101.43822985 352.30184139 99.63047538 350.49590608 97.8215332 348.69116211 C95.0706319 345.94561607 92.32510779 343.19477454 89.58007812 340.44335938 C87.81542468 338.6793668 86.05046103 336.9156845 84.28515625 335.15234375 C83.47345474 334.33861801 82.66175323 333.52489227 81.82545471 332.68650818 C77.04160711 327.92205209 72.12337139 323.39536001 67 319 C65.39231627 317.54554483 63.78760285 316.08779105 62.1875 314.625 C57.92119411 310.77949818 53.548307 307.10268734 49.08203125 303.4921875 C46.86080631 301.69606391 44.65099623 299.88991464 42.44921875 298.0703125 C16.65722796 276.81176009 -10.90286086 257.48764435 -40 241 C-40.95165039 240.45714355 -41.90330078 239.91428711 -42.88378906 239.35498047 C-78.24047211 217.90123161 -78.24047211 217.90123161 -117 207 Z M354 780 C354.12117188 780.66902344 354.24234375 781.33804688 354.3671875 782.02734375 C354.94639624 785.34665538 355.4791861 788.67101385 356 792 C356.28617188 793.79824219 356.28617188 793.79824219 356.578125 795.6328125 C368.4269573 880.77513606 343.4551368 982.39238661 277 1164 C276.52852539 1164.98291016 276.05705078 1165.96582031 275.57128906 1166.97851562 C268.64125705 1181.3304201 260.97436387 1195.20559487 253 1209 C252.17160508 1210.44906448 251.34345816 1211.89827077 250.515625 1213.34765625 C240.45332032 1230.83589977 229.65383862 1248.00632704 217.4453125 1264.07910156 C215.78573099 1266.28477509 214.15730522 1268.51168709 212.53125 1270.7421875 C206.24257165 1279.36434754 199.89999368 1287.85434375 193 1296 C192.10765282 1297.06605475 191.21574952 1298.13248115 190.32421875 1299.19921875 C185.41059542 1305.06089038 180.42058885 1310.83608664 175.265625 1316.48828125 C174.03083836 1317.85719127 172.80216971 1319.23216021 171.60647583 1320.63534546 C166.61901338 1326.46500296 161.24536661 1331.84980091 155.7890625 1337.23828125 C154.81134324 1338.20903052 153.83400519 1339.18016387 152.85702515 1340.1516571 C148.75018709 1344.23434298 144.63768364 1348.31128492 140.52050781 1352.38354492 C137.98576213 1354.89116581 135.4561929 1357.40391889 132.92951584 1359.9196682 C131.52385608 1361.31629169 130.11256197 1362.70723728 128.70108032 1364.09797668 C122.6941722 1370.08175984 117.26651558 1376.35946798 112 1383 C110.95205659 1384.27837325 109.90195446 1385.55498759 108.84765625 1386.828125 C101.99401098 1395.21012598 95.7565872 1403.83037967 90 1413 C89.40155273 1413.94552734 89.40155273 1413.94552734 88.79101562 1414.91015625 C66.92336918 1449.7716216 54.25654185 1488.32777493 49 1529 C48.84313721 1530.21296753 48.84313721 1530.21296753 48.68310547 1531.45043945 C47.62622518 1541.11077901 47.75614961 1550.8566454 47.75 1560.5625 C47.74932526 1561.51986053 47.74865051 1562.47722107 47.74795532 1563.46359253 C47.76514214 1578.84772241 48.44374764 1593.79965063 51 1609 C51.17160645 1610.04784668 51.34321289 1611.09569336 51.52001953 1612.17529297 C56.30393091 1640.70347943 63.44508521 1670.26124225 77 1696 C81.25450915 1691.87441537 85.11359494 1687.47053407 89 1683 C94.34839253 1676.85175777 99.76572839 1671.23888371 106 1666 C106.98355469 1665.12859375 107.96710938 1664.2571875 108.98046875 1663.359375 C118.18667145 1655.22858713 127.92520072 1648.0149948 138 1641 C138.63518555 1640.55414551 139.27037109 1640.10829102 139.92480469 1639.64892578 C155.73528015 1628.60028347 172.67190846 1619.41872672 190 1611 C204.35002536 1604.00486229 218.38315227 1596.61787958 232.20019531 1588.61767578 C234.85286391 1587.08501253 237.51528154 1585.570728 240.1796875 1584.05859375 C264.06105846 1570.36726991 287.19737089 1554.80152466 309 1538 C309.64404785 1537.50467773 310.2880957 1537.00935547 310.95166016 1536.49902344 C315.00081796 1533.37346663 319.0130042 1530.20438217 323 1527 C323.928125 1526.25492188 324.85625 1525.50984375 325.8125 1524.7421875 C337.32711804 1515.40329671 348.48784634 1505.70407116 359.30957031 1495.57275391 C361.05753277 1493.94647225 362.82012983 1492.33734424 364.5859375 1490.73046875 C374.21406144 1481.92648783 383.16831029 1472.59742901 392 1463 C392.97106878 1461.95416203 393.94239347 1460.90856157 394.9140625 1459.86328125 C400.52956604 1453.76967756 405.81423691 1447.46108919 411 1441 C411.92389449 1439.86801214 412.8484029 1438.73652513 413.7734375 1437.60546875 C474.16534839 1363.41743268 503.59980774 1277.60405159 503.3125 1182.125 C503.31067719 1180.85106384 503.30885437 1179.57712769 503.30697632 1178.2645874 C503.25464489 1156.38323151 502.4333202 1134.7460171 500 1113 C499.9175 1112.24853699 499.835 1111.49707397 499.75 1110.72283936 C492.96235394 1049.30280071 477.38001635 988.80588709 453 932 C452.60506348 931.07864258 452.21012695 930.15728516 451.80322266 929.20800781 C449.30142345 923.42429011 446.67345033 917.70598818 444 912 C443.5678418 911.06478516 443.13568359 910.12957031 442.69042969 909.16601562 C422.10591586 864.68953965 394.66408678 813.63652769 357 781 C356.01 780.67 355.02 780.34 354 780 Z " fill="#D52130" transform="translate(1046,97)"/>
</svg>
